<svg width="32" height="32" viewBox="0 0 32 32" fill="none" xmlns="http://www.w3.org/2000/svg">
<path d="M16.0016 12.4106C14.0152 12.4106 12.4129 14.0132 12.4129 16C12.4129 17.9868 14.0152 19.5894 16.0016 19.5894C17.988 19.5894 19.5902 17.9868 19.5902 16C19.5902 14.0132 17.988 12.4106 16.0016 12.4106ZM16.0016 18.3336C14.7179 18.3336 13.6685 17.2871 13.6685 16C13.6685 14.7129 14.7148 13.6664 16.0016 13.6664C17.2883 13.6664 18.3346 14.7129 18.3346 16C18.3346 17.2871 17.2852 18.3336 16.0016 18.3336V18.3336ZM20.574 12.2638C20.574 12.7292 20.1992 13.101 19.737 13.101C19.2716 13.101 18.8999 12.7261 18.8999 12.2638C18.8999 11.8014 19.2747 11.4265 19.737 11.4265C20.1992 11.4265 20.574 11.8014 20.574 12.2638ZM22.9508 13.1135C22.8977 11.992 22.6416 10.9985 21.8202 10.1801C21.0019 9.3616 20.0087 9.10543 18.8875 9.0492C17.7318 8.9836 14.2682 8.9836 13.1125 9.0492C11.9944 9.10231 11.0012 9.35847 10.1798 10.1769C9.35839 10.9954 9.10541 11.9888 9.04919 13.1103C8.9836 14.2662 8.9836 17.7307 9.04919 18.8865C9.10229 20.008 9.35839 21.0015 10.1798 21.8199C11.0012 22.6384 11.9913 22.8946 13.1125 22.9508C14.2682 23.0164 17.7318 23.0164 18.8875 22.9508C20.0087 22.8977 21.0019 22.6415 21.8202 21.8199C22.6385 21.0015 22.8946 20.008 22.9508 18.8865C23.0164 17.7307 23.0164 14.2693 22.9508 13.1135V13.1135ZM21.4579 20.1267C21.2143 20.739 20.7427 21.2108 20.1274 21.4575C19.206 21.8231 17.0197 21.7387 16.0016 21.7387C14.9834 21.7387 12.794 21.8199 11.8757 21.4575C11.2636 21.2139 10.792 20.7422 10.5452 20.1267C10.1798 19.2052 10.2641 17.0184 10.2641 16C10.2641 14.9816 10.1829 12.7917 10.5452 11.8733C10.7888 11.261 11.2605 10.7892 11.8757 10.5425C12.7971 10.1769 14.9834 10.2613 16.0016 10.2613C17.0197 10.2613 19.2091 10.1801 20.1274 10.5425C20.7395 10.7861 21.2112 11.2578 21.4579 11.8733C21.8233 12.7948 21.739 14.9816 21.739 16C21.739 17.0184 21.8233 19.2083 21.4579 20.1267Z" fill="black"/>
</svg>
