<svg width="32" height="32" viewBox="0 0 32 32" fill="none" xmlns="http://www.w3.org/2000/svg">
<path d="M16.375 9C13.1688 9 10 11.0557 10 14.3826C10 16.4984 11.2375 17.7005 11.9875 17.7005C12.2969 17.7005 12.475 16.871 12.475 16.6366C12.475 16.3571 11.7344 15.7621 11.7344 14.599C11.7344 12.1827 13.6469 10.4696 16.1219 10.4696C18.25 10.4696 19.825 11.6327 19.825 13.7695C19.825 15.3654 19.1594 18.3587 17.0031 18.3587C16.225 18.3587 15.5594 17.8177 15.5594 17.0424C15.5594 15.9063 16.3844 14.8064 16.3844 13.6343C16.3844 11.6447 13.45 12.0054 13.45 14.4097C13.45 14.9146 13.5156 15.4736 13.75 15.9334C13.3187 17.7186 12.4375 20.3783 12.4375 22.2176C12.4375 22.7856 12.5219 23.3446 12.5781 23.9126C12.6844 24.0268 12.6313 24.0148 12.7938 23.9577C14.3688 21.884 14.3125 21.4783 15.025 18.7644C15.4094 19.4677 16.4031 19.8464 17.1906 19.8464C20.5094 19.8464 22 16.7358 22 13.9318C22 10.9475 19.3187 9 16.375 9Z" fill="black"/>
</svg>
