<svg width="50" height="50" viewBox="0 0 50 50" fill="none" xmlns="http://www.w3.org/2000/svg">
<path d="M25.001 42.0946L21.5288 45L19.24 41.0726L14.9985 42.5874L14.1762 38.0989L9.68163 38.0539L10.4139 33.5453L6.2044 31.9422L8.41519 27.9688L5 24.998L8.41318 22.0253L6.20245 18.0527L10.4129 16.4498L9.67961 11.9461L14.1752 11.9021L14.9975 7.41353L19.239 8.9274L21.5277 5L25 7.90544L28.4722 5L30.762 8.92838L35.0035 7.41353L35.8248 11.903L40.3203 11.948L39.5881 16.4517L43.7976 18.0549L41.5868 22.0283L45 24.999L41.5868 27.9717L43.7966 31.9454L39.5861 33.5483L40.3193 38.051L35.8228 38.096L35.0015 42.5855L30.762 41.0716L28.4722 44.999L25.001 42.0946ZM26.2074 40.6088L27.969 42.0826L29.1304 40.0888L29.9227 38.7302L31.3912 39.2542L33.543 40.0237L33.9601 37.7462L34.2452 36.1883L35.8068 36.1724L38.0896 36.1514L37.7174 33.8648L37.4634 32.302L38.9229 31.747L41.0576 30.9322L39.9372 28.9186L39.1709 27.541L40.3543 26.5119L42.0889 24.999L40.3554 23.4962L39.1719 22.4651L39.9382 21.0865L41.0596 19.0717L38.9249 18.2591L37.4653 17.7051L37.7204 16.1421L38.0926 13.8567L35.8098 13.8337L34.2492 13.8178L33.9641 12.2607L33.548 9.98337L31.3952 10.7519L29.9267 11.2759L29.1334 9.91634L27.971 7.92256L26.2084 9.39631L25.003 10.4031L23.7976 9.39631L22.036 7.92256L20.8746 9.91537L20.0823 11.2749L18.6127 10.7509L16.462 9.98141L16.0438 12.2597L15.7588 13.8168L14.1982 13.8327L11.9164 13.8548L12.2886 16.1411L12.5426 17.7022L11.0831 18.2582L8.94736 19.0707L10.0688 21.0856L10.835 22.4632L9.65165 23.4942L7.91703 25.0051L9.65061 26.5148L10.834 27.5459L10.0677 28.9235L8.94639 30.9373L11.0801 31.7489L12.5407 32.3049L12.2856 33.867L11.9144 36.1553L14.1962 36.1783L15.7567 36.1944L16.0419 37.7523L16.459 40.0286L18.6118 39.2601L20.0813 38.7361L20.8735 40.0956L22.036 42.0897L23.7976 40.6157L25.003 39.6089L26.2074 40.6088ZM26.3254 28.0639C26.3254 25.1314 27.891 23.5001 29.7856 23.5001C31.7923 23.5001 33.0868 25.0661 33.0868 27.8384C33.0868 30.9032 31.5012 32.4241 29.6706 32.4241C27.891 32.4241 26.3455 30.9715 26.3254 28.0639V28.0639ZM27.847 27.9756C27.824 29.8302 28.5292 31.2399 29.7196 31.2399C30.9971 31.2399 31.5703 29.8522 31.5703 27.9336C31.5703 26.1652 31.0631 24.6903 29.7196 24.6903C28.5082 24.6863 27.847 26.1432 27.847 27.9747V27.9756ZM20.1993 32.3842L28.6173 17.6371H29.8507L21.4327 32.3842H20.1993ZM16.9832 22.0224C16.9832 19.1169 18.5467 17.4818 20.4424 17.4818C22.4431 17.4818 23.7696 19.0488 23.7696 21.8221C23.7696 24.8859 22.183 26.4058 20.3324 26.4058C18.5488 26.4058 17.0042 24.953 16.9832 22.0234V22.0224ZM18.5257 21.9561C18.4817 23.8106 19.1669 25.2194 20.3763 25.2214C21.6538 25.2214 22.227 23.8347 22.227 21.915C22.227 20.1457 21.7198 18.6711 20.3763 18.6711C19.1669 18.668 18.5257 20.1208 18.5257 21.9573V21.9561Z" fill="#F16D7F"/>
</svg>
