<svg width="32" height="32" viewBox="0 0 32 32" fill="none" xmlns="http://www.w3.org/2000/svg">
<path d="M22.4582 12.9906C22.4677 13.1219 22.4677 13.2531 22.4677 13.3844C22.4677 17.3875 19.3744 22 13.7208 22C11.9791 22 10.3611 21.5031 9 20.6406C9.24747 20.6687 9.48539 20.6781 9.74239 20.6781C11.1795 20.6781 12.5025 20.2 13.559 19.3844C12.2075 19.3563 11.0749 18.4844 10.6846 17.2844C10.875 17.3125 11.0653 17.3312 11.2652 17.3312C11.5413 17.3312 11.8173 17.2937 12.0743 17.2281C10.6656 16.9469 9.60911 15.7281 9.60911 14.2562V14.2188C10.0184 14.4438 10.4943 14.5844 10.9987 14.6031C10.1706 14.0593 9.62816 13.1312 9.62816 12.0812C9.62816 11.5187 9.78041 11.0031 10.0469 10.5531C11.5603 12.3906 13.835 13.5906 16.3858 13.7219C16.3382 13.4969 16.3096 13.2625 16.3096 13.0281C16.3096 11.3594 17.6802 10 19.3839 10C20.269 10 21.0685 10.3656 21.6301 10.9562C22.3249 10.825 22.9911 10.5719 23.5812 10.225C23.3528 10.9281 22.8674 11.5188 22.2297 11.8937C22.8484 11.8281 23.448 11.6594 24 11.425C23.5813 12.025 23.0578 12.5593 22.4582 12.9906V12.9906Z" fill="black"/>
</svg>
