<svg width="26" height="26" viewBox="0 0 26 26" fill="none" xmlns="http://www.w3.org/2000/svg">
<path d="M13 17.8746C17.0345 17.8746 20.3123 13.8643 20.3123 8.93683C20.3123 4.00938 17.0345 0 13 0C11.9807 0.0194922 10.9795 0.272012 10.0729 0.738218C9.16624 1.20442 8.37834 1.87194 7.76953 2.68966C6.38939 4.47893 5.65562 6.68273 5.68772 8.94221C5.68772 13.8652 8.96552 17.8746 13 17.8746ZM13 1.62545C16.1379 1.62545 18.6877 4.90593 18.6877 8.93773C18.6877 12.9695 16.1361 16.25 13 16.25C9.86386 16.25 7.3123 12.9686 7.31141 8.93773C7.31051 4.90683 9.86207 1.62545 13 1.62545ZM18.6877 16.25C18.4722 16.25 18.2655 16.3356 18.113 16.488C17.9606 16.6405 17.875 16.8472 17.875 17.0627C17.875 17.2783 17.9606 17.485 18.113 17.6374C18.2655 17.7898 18.4722 17.8754 18.6877 17.8754C20.1957 17.8771 21.6415 18.4769 22.7078 19.5432C23.7741 20.6095 24.3738 22.0552 24.3754 23.5632C24.375 23.7785 24.2892 23.9848 24.137 24.137C23.9847 24.2892 23.7784 24.375 23.5632 24.3754H2.43859C2.22331 24.375 2.01702 24.2892 1.86479 24.137C1.71256 23.9848 1.62679 23.7785 1.62631 23.5632C1.62821 22.0553 2.22808 20.6097 3.29432 19.5434C4.36057 18.4772 5.80614 17.8773 7.31403 17.8754C7.52946 17.8754 7.73605 17.7899 7.88839 17.6375C8.04072 17.4852 8.12631 17.2786 8.12631 17.0632C8.12631 16.8477 8.04072 16.6411 7.88839 16.4888C7.73605 16.3365 7.52946 16.2509 7.31403 16.2509C5.3752 16.2526 3.51629 17.0233 2.14507 18.394C0.773853 19.7647 0.00237386 21.6234 0 23.5623C0.000711922 24.2086 0.25776 24.8282 0.714768 25.2852C1.17178 25.7422 1.79141 25.9993 2.43772 26H23.5632C24.2093 25.9991 24.8287 25.7419 25.2856 25.2849C25.7424 24.8279 25.9993 24.2084 26 23.5623C25.9976 21.6237 25.2265 19.7651 23.8557 18.3943C22.4849 17.0235 20.6263 16.2524 18.6877 16.25Z" fill="#E8E8E8"/>
</svg>
