<svg width="28" height="26" viewBox="0 0 28 26" fill="none" xmlns="http://www.w3.org/2000/svg">
<path d="M22.929 26C22.3621 25.9765 21.8268 25.7263 21.438 25.3031C21.0492 24.8799 20.8378 24.3173 20.8493 23.7362C20.8608 23.1551 21.0941 22.6018 21.4993 22.195C21.9045 21.7882 22.4493 21.5603 23.0166 21.5603C23.5839 21.5603 24.1286 21.7882 24.5337 22.195C24.9389 22.6018 25.1723 23.1551 25.1838 23.7362C25.1952 24.3173 24.9839 24.8799 24.5951 25.3031C24.2062 25.7263 23.6709 25.9765 23.1041 26H22.929ZM5.90963 23.5972C5.90963 23.122 6.04718 22.6575 6.30489 22.2623C6.5626 21.8672 6.9289 21.5592 7.35745 21.3774C7.786 21.1955 8.25759 21.1479 8.71254 21.2407C9.16749 21.3334 9.58538 21.5622 9.91338 21.8982C10.2414 22.2343 10.4648 22.6624 10.5553 23.1285C10.6458 23.5946 10.5993 24.0777 10.4218 24.5167C10.2443 24.9558 9.94365 25.331 9.55797 25.5951C9.17228 25.8591 8.71887 26 8.25501 26C7.94687 26.0002 7.64167 25.9383 7.35692 25.8176C7.07217 25.697 6.81343 25.52 6.59546 25.2969C6.37749 25.0737 6.20462 24.8088 6.08665 24.5172C5.96867 24.2255 5.90792 23.9129 5.90792 23.5972H5.90963ZM9.23514 18.5461C9.00809 18.5468 8.78705 18.4711 8.60604 18.3307C8.42503 18.1902 8.29404 17.9928 8.23311 17.7688L4.00364 2.11945H1.0344C0.760061 2.11945 0.496946 2.0078 0.30296 1.80907C0.108973 1.61033 0 1.34078 0 1.05973C0 0.778672 0.108973 0.509127 0.30296 0.31039C0.496946 0.111654 0.760061 5.21136e-06 1.0344 5.21136e-06H4.7808C5.00788 -0.00072384 5.22889 0.0750594 5.40979 0.215682C5.5907 0.356304 5.7214 0.553964 5.78187 0.778212L10.0113 16.4275H21.5437L25.3794 7.41897H12.6026C12.4642 7.4231 12.3264 7.39872 12.1973 7.3473C12.0683 7.29588 11.9505 7.21844 11.8512 7.11959C11.7519 7.02074 11.6729 6.90247 11.619 6.77179C11.565 6.64111 11.5372 6.50067 11.5372 6.3588C11.5372 6.21692 11.565 6.07648 11.619 5.9458C11.6729 5.81512 11.7519 5.69685 11.8512 5.598C11.9505 5.49915 12.0683 5.42172 12.1973 5.37029C12.3264 5.31887 12.4642 5.2945 12.6026 5.29862H26.966C27.1372 5.29858 27.3058 5.34225 27.4564 5.42568C27.6071 5.50911 27.735 5.62968 27.8288 5.77649C27.9232 5.92377 27.9806 6.09269 27.9959 6.26819C28.0111 6.4437 27.9839 6.62035 27.9164 6.78242L23.1863 17.9104C23.1055 18.0993 22.9728 18.2599 22.8043 18.3728C22.6359 18.4857 22.439 18.5459 22.2377 18.5461H9.23514Z" fill="#E8E8E8"/>
</svg>
