<svg width="27" height="26" viewBox="0 0 27 26" fill="none" xmlns="http://www.w3.org/2000/svg">
<path d="M18.0616 16.9002C19.6732 15.1921 20.6302 12.9979 20.7717 10.686C20.9133 8.37416 20.2308 6.08543 18.8389 4.20418C17.447 2.32293 15.4304 0.963745 13.1279 0.354872C10.8254 -0.254001 8.37705 -0.0754786 6.19412 0.860458C4.01119 1.7964 2.22658 3.43274 1.13999 5.49471C0.0534004 7.55668 -0.268993 9.91869 0.226949 12.1841C0.722891 14.4495 2.00696 16.4803 3.86353 17.9354C5.7201 19.3906 8.03609 20.1816 10.4226 20.1754C12.6749 20.1784 14.8665 19.4661 16.6626 18.1472L24.4106 25.7234C24.4961 25.8098 24.5985 25.8788 24.7118 25.9263C24.8252 25.9738 24.9471 25.9989 25.0706 26C25.1943 26.0004 25.3167 25.976 25.4303 25.9284C25.5438 25.8808 25.6461 25.8111 25.7306 25.7234C25.9045 25.5479 26.0016 25.3138 26.0016 25.0703C26.0016 24.8268 25.9045 24.5927 25.7306 24.4172L18.0616 16.9002ZM1.88858 9.9858C1.90141 8.35034 2.41289 6.75517 3.35854 5.40138C4.30419 4.0476 5.64168 2.99581 7.20239 2.37861C8.7631 1.7614 10.4772 1.6064 12.1285 1.93316C13.7799 2.25992 15.2946 3.0538 16.4817 4.21472C17.6688 5.37565 18.4752 6.85165 18.7991 8.45665C19.1231 10.0617 18.9502 11.7238 18.3022 13.2336C17.6542 14.7434 16.5601 16.0332 15.1578 16.9404C13.7555 17.8477 12.1079 18.3317 10.4226 18.3316C8.15112 18.321 5.97677 17.4363 4.37679 15.8716C2.77681 14.307 1.88193 12.1901 1.88858 9.9858V9.9858Z" fill="#E8E8E8"/>
</svg>
