<svg width="19" height="19" viewBox="0 0 19 19" fill="none" xmlns="http://www.w3.org/2000/svg">
<path d="M9.5 19C14.7467 19 19 14.7467 19 9.5C19 4.25329 14.7467 0 9.5 0C4.25329 0 0 4.25329 0 9.5C0 14.7467 4.25329 19 9.5 19Z" fill="#F16D7F"/>
<path d="M8.172 8.648C8.62 8.552 9.032 8.504 9.408 8.504C9.856 8.504 10.252 8.57 10.596 8.702C10.94 8.834 11.226 9.016 11.454 9.248C11.686 9.48 11.86 9.754 11.976 10.07C12.096 10.386 12.156 10.73 12.156 11.102C12.156 11.558 12.076 11.97 11.916 12.338C11.76 12.706 11.542 13.022 11.262 13.286C10.986 13.546 10.66 13.746 10.284 13.886C9.908 14.026 9.502 14.096 9.066 14.096C8.814 14.096 8.572 14.07 8.34 14.018C8.108 13.97 7.89 13.904 7.686 13.82C7.486 13.736 7.3 13.64 7.128 13.532C6.956 13.424 6.804 13.31 6.672 13.19L7.002 12.734C7.074 12.63 7.168 12.578 7.284 12.578C7.364 12.578 7.454 12.61 7.554 12.674C7.654 12.734 7.776 12.802 7.92 12.878C8.064 12.954 8.232 13.024 8.424 13.088C8.62 13.148 8.852 13.178 9.12 13.178C9.42 13.178 9.69 13.13 9.93 13.034C10.17 12.938 10.376 12.802 10.548 12.626C10.72 12.446 10.852 12.232 10.944 11.984C11.036 11.736 11.082 11.458 11.082 11.15C11.082 10.882 11.042 10.64 10.962 10.424C10.886 10.208 10.768 10.024 10.608 9.872C10.452 9.72 10.256 9.602 10.02 9.518C9.784 9.434 9.508 9.392 9.192 9.392C8.976 9.392 8.75 9.41 8.514 9.446C8.282 9.482 8.044 9.54 7.8 9.62L7.128 9.422L7.818 5.402H11.892V5.87C11.892 6.022 11.844 6.148 11.748 6.248C11.656 6.344 11.496 6.392 11.268 6.392H8.568L8.172 8.648Z" fill="white"/>
</svg>
