<svg width="50" height="50" viewBox="0 0 50 50" fill="none" xmlns="http://www.w3.org/2000/svg">
<path d="M43.4524 16.3092C42.2625 16.2972 41.1163 16.7549 40.2645 17.5818C39.4128 18.4088 38.9248 19.5378 38.9075 20.7218C38.9105 21.3449 39.0485 21.96 39.3118 22.5252C39.5752 23.0905 39.9578 23.5926 40.4336 23.9975L34.7011 25.9982L26.5436 16.572C27.4193 16.2812 28.1822 15.7259 28.7257 14.9832C29.2693 14.2406 29.5666 13.3475 29.5761 12.4288C29.5514 11.2458 29.0618 10.1197 28.2124 9.2917C27.3629 8.46374 26.2212 8 25.0321 8C23.8431 8 22.7013 8.46374 21.8519 9.2917C21.0024 10.1197 20.5128 11.2458 20.4882 12.4288C20.4976 13.3384 20.7887 14.2231 21.3218 14.9621C21.8548 15.7011 22.604 16.2586 23.467 16.5585L15.2966 26.001L9.56615 24.0006C10.0416 23.5955 10.4239 23.0931 10.6869 22.5278C10.9499 21.9626 11.0874 21.3478 11.0902 20.7249C11.1128 19.8714 10.8921 19.029 10.4538 18.2951C10.0154 17.5611 9.37734 16.9655 8.61322 16.5772C7.84911 16.189 6.9902 16.0237 6.13573 16.1007C5.28126 16.1778 4.46613 16.494 3.78458 17.0126C3.10303 17.5313 2.58289 18.2312 2.28426 19.0316C1.98563 19.832 1.92071 20.7 2.09701 21.5356C2.27332 22.3712 2.68361 23.1399 3.28053 23.7532C3.87745 24.3665 4.63663 24.7992 5.47023 25.0012V36.9661C5.47743 37.0459 5.49377 37.1246 5.51908 37.2006C5.48686 37.324 5.4705 37.4511 5.47023 37.5785C5.47023 41.8735 22.9993 42 24.9979 42C26.9964 42 44.5256 41.8744 44.5256 37.5785C44.5249 37.4511 44.5084 37.3241 44.4766 37.2006C44.5037 37.125 44.5202 37.0461 44.5256 36.9661V25.0012C45.6006 24.7674 46.5492 24.1428 47.1858 23.2496C47.8223 22.3564 48.101 21.259 47.9672 20.1721C47.8335 19.0853 47.2969 18.0871 46.4626 17.3732C45.6283 16.6592 44.5563 16.2808 43.4563 16.312L43.4524 16.3092ZM22.6951 12.431C22.6838 11.9694 22.8111 11.5148 23.0606 11.1255C23.3101 10.7362 23.6705 10.4297 24.0959 10.2452C24.5213 10.0607 24.9923 10.0066 25.4488 10.0898C25.9052 10.1729 26.3264 10.3895 26.6585 10.712C26.9907 11.0344 27.2187 11.448 27.3134 11.9C27.4082 12.3521 27.3654 12.822 27.1905 13.2497C27.0157 13.6774 26.7167 14.0436 26.3317 14.3014C25.9467 14.5592 25.4933 14.697 25.0293 14.6971C24.4181 14.7033 23.8293 14.4685 23.3918 14.0438C22.9544 13.619 22.7038 13.0391 22.6951 12.431V12.431ZM15.2702 28.275C15.4825 28.3479 15.7117 28.3564 15.9288 28.2992C16.1459 28.242 16.3409 28.1216 16.4891 27.9537L24.9999 18.1218L33.5106 27.9537C33.6584 28.1217 33.8533 28.2421 34.0702 28.2995C34.2872 28.3569 34.5163 28.3487 34.7285 28.2759L42.3177 25.6234V35.2967C37.539 33.231 26.5591 33.1549 25.0027 33.1549C23.4464 33.1549 12.4627 33.232 7.68788 35.2967V25.6234L15.2702 28.275ZM24.9969 39.8484C16.4862 39.8484 11.0579 38.8644 8.80011 38.036C8.45667 37.9217 8.12825 37.7666 7.82186 37.5745C8.52816 37.0673 10.8163 36.3752 14.6364 35.8885C21.5187 35.1052 28.4683 35.1052 35.3506 35.8885C39.1658 36.3752 41.4598 37.0673 42.1642 37.5745C41.8603 37.768 41.5333 37.9231 41.1908 38.036C38.9389 38.8625 33.5154 39.8484 24.9969 39.8484ZM4.2122 20.7218C4.20131 20.2603 4.32892 19.8061 4.57869 19.4171C4.82845 19.028 5.18906 18.7217 5.61449 18.5375C6.03991 18.3533 6.51078 18.2994 6.9671 18.3828C7.42341 18.4661 7.84448 18.6831 8.17641 19.0057C8.50834 19.3282 8.73609 19.7418 8.83068 20.1938C8.92527 20.6457 8.88238 21.1156 8.70744 21.5432C8.53251 21.9708 8.23343 22.3369 7.84849 22.5946C7.46356 22.8523 7.01022 22.99 6.54628 22.9901C5.93472 22.9966 5.34548 22.7615 4.90791 22.3363C4.47035 21.9111 4.2202 21.3304 4.2122 20.7218V20.7218ZM43.4524 22.9901C43.0044 22.9792 42.5696 22.8369 42.2024 22.5813C41.8351 22.3257 41.5518 21.968 41.3879 21.5529C41.2239 21.1379 41.1866 20.684 41.2806 20.2479C41.3746 19.8119 41.5959 19.413 41.9165 19.1015C42.2371 18.7899 42.643 18.5793 43.0833 18.4961C43.5236 18.4129 43.9788 18.4608 44.3918 18.6337C44.8049 18.8067 45.1576 19.0972 45.4057 19.4686C45.6538 19.8401 45.7863 20.2759 45.7866 20.7218C45.7781 21.3301 45.5277 21.9104 45.0902 22.3353C44.6527 22.7603 44.0637 22.9954 43.4524 22.9891V22.9901Z" fill="#F16D7F"/>
</svg>
