<svg width="50" height="50" viewBox="0 0 50 50" fill="none" xmlns="http://www.w3.org/2000/svg">
<path d="M32.5928 35.5926H17.4561C17.2534 36.8213 16.601 37.9403 15.6161 38.7482C14.6312 39.5562 13.3785 40 12.0833 40C10.7882 40 9.53546 39.5562 8.55057 38.7482C7.56569 37.9403 6.91326 36.8213 6.71062 35.5926H4.81619C4.33224 35.5896 3.8693 35.4023 3.52884 35.0719C3.18838 34.7416 2.99819 34.2951 3.00002 33.8302V11.7632C2.99793 11.2982 3.18799 10.8514 3.52848 10.5209C3.86897 10.1903 4.33207 10.003 4.81619 10H29.8055C30.2895 10.003 30.7525 10.1903 31.0928 10.5209C31.4332 10.8515 31.623 11.2983 31.6207 11.7632V13.5529H38.5851C38.6637 13.5526 38.742 13.5624 38.8179 13.582C41.0673 13.7699 42.1989 14.8971 43.3921 16.8342L46.8728 22.559C46.9558 22.6949 46.9997 22.8496 47 23.0072V34.7105C47.001 34.943 46.9059 35.1663 46.7356 35.3316C46.5652 35.4968 46.3335 35.5904 46.0914 35.5916H43.3393C43.1366 36.8204 42.4842 37.9393 41.4993 38.7473C40.5144 39.5552 39.2617 39.9991 37.9665 39.9991C36.6713 39.9991 35.4186 39.5552 34.4338 38.7473C33.4489 37.9393 32.7965 36.8204 32.5938 35.5916L32.5928 35.5926ZM34.3317 34.7105C34.3395 35.399 34.5591 36.0699 34.9629 36.6389C35.3668 37.2078 35.9368 37.6492 36.6013 37.9076C37.2658 38.1661 37.995 38.2299 38.6972 38.0911C39.3994 37.9523 40.0431 37.6171 40.5474 37.1276C41.0516 36.6382 41.3939 36.0164 41.5311 35.3405C41.6682 34.6646 41.5942 33.9649 41.3182 33.3293C41.0422 32.6938 40.5767 32.151 39.9802 31.7691C39.3837 31.3871 38.6829 31.1831 37.9661 31.1828C36.9975 31.1888 36.0709 31.5637 35.3896 32.225C34.7083 32.8863 34.3278 33.7801 34.3317 34.7105ZM8.44954 34.7105C8.45726 35.399 8.67685 36.0699 9.08071 36.6389C9.48457 37.2078 10.0546 37.6492 10.7191 37.9076C11.3836 38.1661 12.1128 38.2299 12.815 38.0911C13.5172 37.9523 14.1609 37.6171 14.6652 37.1276C15.1694 36.6382 15.5117 36.0164 15.6489 35.3405C15.786 34.6646 15.712 33.9649 15.436 33.3293C15.16 32.6938 14.6945 32.151 14.098 31.7691C13.5015 31.3871 12.8007 31.1831 12.0838 31.1828C11.1151 31.1886 10.1883 31.5632 9.50674 32.2245C8.82521 32.8859 8.44465 33.78 8.44856 34.7105H8.44954ZM43.3373 33.8293H45.1819V28.5515H42.506C42.3861 28.551 42.2675 28.5279 42.1569 28.4834C42.0463 28.4388 41.9459 28.3737 41.8616 28.2919C41.7772 28.21 41.7104 28.113 41.6651 28.0063C41.6198 27.8997 41.5968 27.7855 41.5974 27.6703V25.9353C41.5971 25.2583 41.8666 24.6069 42.3505 24.1147H36.1117C36.0362 24.1146 35.961 24.1054 35.8878 24.0874C35.1985 24.0284 34.5574 23.7232 34.0913 23.2319C33.6251 22.7407 33.3679 22.0992 33.3704 21.4345V17.0193C33.3697 16.9041 33.3927 16.7897 33.438 16.6831C33.4833 16.5764 33.5501 16.4794 33.6344 16.3975C33.7188 16.3156 33.8192 16.2504 33.9297 16.2058C34.0403 16.1611 34.159 16.1378 34.2789 16.1372H40.6194C40.2826 15.8378 39.8842 15.6095 39.4499 15.4673C39.0156 15.325 38.5551 15.2719 38.0981 15.3113H31.6207V33.8254H32.5928C32.7955 32.5967 33.4479 31.4777 34.4328 30.6698C35.4177 29.8618 36.6704 29.418 37.9656 29.418C39.2607 29.418 40.5134 29.8618 41.4983 30.6698C42.4832 31.4777 43.1356 32.5967 43.3383 33.8254L43.3373 33.8293ZM17.4551 33.8293H29.8045V11.7623H4.81619V33.8293H6.71062C6.91326 32.6006 7.56569 31.4814 8.55057 30.6735C9.53546 29.8655 10.7882 29.4217 12.0833 29.4217C13.3785 29.4217 14.6312 29.8655 15.6161 30.6735C16.601 31.4814 17.2534 32.6006 17.4561 33.8293H17.4551ZM43.4136 25.938V26.7921H45.1819V25.0569H44.3222C44.0808 25.0584 43.8498 25.1517 43.6797 25.3163C43.5096 25.4809 43.4143 25.7034 43.4146 25.9353L43.4136 25.938ZM35.1855 21.4363C35.1845 21.6736 35.2814 21.9016 35.455 22.0703C35.6286 22.239 35.8648 22.3346 36.1117 22.3363C36.1742 22.3361 36.2365 22.3425 36.2976 22.3551H44.6352L41.93 17.9062H35.1816L35.1855 21.4363ZM35.2765 34.7123C35.2737 34.0241 35.5551 33.3629 36.0592 32.8738C36.5632 32.3848 37.2486 32.1077 37.9651 32.1035C38.2084 32.1035 38.4417 32.1964 38.6138 32.3617C38.7858 32.527 38.8824 32.7509 38.8824 32.9846C38.8824 33.2183 38.7858 33.4425 38.6138 33.6078C38.4417 33.773 38.2084 33.8658 37.9651 33.8658C37.7907 33.8643 37.6197 33.9128 37.4739 34.0048C37.3282 34.0968 37.2141 34.2282 37.1463 34.3825C37.0785 34.5369 37.0599 34.7072 37.093 34.8717C37.1261 35.0362 37.2093 35.1876 37.3321 35.3066C37.4549 35.4256 37.6117 35.5068 37.7826 35.54C37.9536 35.5733 38.131 35.557 38.2923 35.4933C38.4535 35.4295 38.5915 35.321 38.6886 35.1818C38.7856 35.0426 38.8375 34.8789 38.8375 34.7114C38.8375 34.4801 38.9331 34.2583 39.1034 34.0947C39.2737 33.9311 39.5047 33.8392 39.7455 33.8392C39.9864 33.8392 40.2174 33.9311 40.3877 34.0947C40.558 34.2583 40.6536 34.4801 40.6536 34.7114C40.6536 35.3966 40.3703 36.0537 39.8659 36.5382C39.3615 37.0227 38.6774 37.2948 37.9641 37.2948C37.2508 37.2948 36.5667 37.0227 36.0623 36.5382C35.5579 36.0537 35.2745 35.3966 35.2745 34.7114L35.2765 34.7123ZM9.39428 34.7123C9.39142 34.0241 9.67291 33.3629 10.1769 32.8738C10.681 32.3848 11.3664 32.1077 12.0829 32.1035C12.3262 32.1035 12.5595 32.1964 12.7316 32.3617C12.9036 32.527 13.0002 32.7509 13.0002 32.9846C13.0002 33.2183 12.9036 33.4425 12.7316 33.6078C12.5595 33.773 12.3262 33.8658 12.0829 33.8658C11.9085 33.8643 11.7375 33.9128 11.5917 34.0048C11.4459 34.0968 11.3319 34.2282 11.2641 34.3825C11.1963 34.5369 11.1777 34.7072 11.2108 34.8717C11.2439 35.0362 11.3271 35.1876 11.4499 35.3066C11.5726 35.4256 11.7295 35.5068 11.9004 35.54C12.0714 35.5733 12.2488 35.557 12.41 35.4933C12.5713 35.4295 12.7093 35.321 12.8064 35.1818C12.9034 35.0426 12.9553 34.8789 12.9553 34.7114C12.9553 34.4801 13.0509 34.2583 13.2212 34.0947C13.3915 33.9311 13.6225 33.8392 13.8633 33.8392C14.1042 33.8392 14.3352 33.9311 14.5055 34.0947C14.6758 34.2583 14.7714 34.4801 14.7714 34.7114C14.7714 35.3966 14.4881 36.0537 13.9837 36.5382C13.4793 37.0227 12.7952 37.2948 12.0819 37.2948C11.3686 37.2948 10.6845 37.0227 10.1801 36.5382C9.6757 36.0537 9.39234 35.3966 9.39234 34.7114L9.39428 34.7123ZM7.57715 15.317C7.33385 15.317 7.10051 15.2243 6.92847 15.059C6.75642 14.8938 6.65976 14.6696 6.65976 14.4359C6.65976 14.2022 6.75642 13.978 6.92847 13.8127C7.10051 13.6475 7.33385 13.5547 7.57715 13.5547H27.0397C27.283 13.5547 27.5163 13.6475 27.6884 13.8127C27.8604 13.978 27.957 14.2022 27.957 14.4359C27.957 14.6696 27.8604 14.8938 27.6884 15.059C27.5163 15.2243 27.283 15.317 27.0397 15.317H7.57715Z" fill="#F16D7F"/>
</svg>
